<?xml version="1.0" encoding="UTF-8" standalone="no"?> <svg width="64" height="64" viewBox="0 0 64 64" fill="none" xmlns="http://www.w3.org/2000/svg">
<path d="M60.9101 21.42L42.6101 3.12005C42.3725 2.90647 42.0622 2.79193 41.7429 2.79996C41.4236 2.80798 41.1194 2.93794 40.8929 3.16318C40.6664 3.38841 40.5347 3.69181 40.5249 4.0111C40.5151 4.33038 40.6278 4.64131 40.8401 4.88005L59.1501 23.1901C59.3888 23.4023 59.6997 23.5151 60.019 23.5052C60.3383 23.4954 60.6417 23.3637 60.8669 23.1372C61.0922 22.9107 61.2221 22.6065 61.2302 22.2872C61.2382 21.9679 61.1236 21.6576 60.9101 21.42V21.42Z" fill="black"/>
<path d="M4.85002 40.81C4.61128 40.5978 4.30035 40.485 3.98107 40.4949C3.66179 40.5047 3.35838 40.6364 3.13315 40.8629C2.90791 41.0894 2.77795 41.3935 2.76993 41.7129C2.76191 42.0322 2.87644 42.3425 3.09002 42.58L21.39 60.88C21.6276 61.0936 21.9378 61.2081 22.2572 61.2001C22.5765 61.1921 22.8807 61.0621 23.1072 60.8369C23.3337 60.6117 23.4654 60.3083 23.4752 59.989C23.485 59.6697 23.3722 59.3588 23.16 59.12L4.85002 40.81Z" fill="black"/>
<path d="M47.85 14.06L37.1 16.22C36.8193 16.2696 36.564 16.4136 36.3764 16.6282C36.1888 16.8427 36.0801 17.115 36.0684 17.3998C36.0568 17.6846 36.1428 17.9648 36.3122 18.194C36.4816 18.4232 36.7243 18.5877 37 18.66L41.72 19.86L19.94 41.69L18.89 37.13C18.8241 36.8574 18.6685 36.6149 18.4481 36.4415C18.2278 36.268 17.9555 36.1737 17.675 36.1737C17.3946 36.1737 17.1223 36.268 16.9019 36.4415C16.6816 36.6149 16.5259 36.8574 16.46 37.13L14 47.83C13.9519 48.0331 13.9557 48.2451 14.0113 48.4463C14.0669 48.6476 14.1724 48.8315 14.318 48.9811C14.4636 49.1307 14.6446 49.2411 14.8442 49.3021C15.0439 49.3631 15.2557 49.3727 15.46 49.33L26.22 47.18C26.4925 47.1171 26.7362 46.9654 26.913 46.7487C27.0897 46.5321 27.1893 46.2628 27.1962 45.9833C27.2031 45.7038 27.1168 45.4299 26.9509 45.2048C26.7851 44.9797 26.549 44.8162 26.28 44.74L21.57 43.54L43.42 21.73L44.42 26.27C44.4899 26.5405 44.6476 26.7801 44.8684 26.9512C45.0893 27.1222 45.3607 27.2151 45.64 27.2151C45.9194 27.2151 46.1908 27.1222 46.4116 26.9512C46.6325 26.7801 46.7902 26.5405 46.86 26.27L49.28 15.57C49.3232 15.3698 49.317 15.162 49.2617 14.9648C49.2065 14.7675 49.1041 14.5867 48.9632 14.4379C48.8224 14.2892 48.6474 14.177 48.4534 14.1112C48.2594 14.0453 48.0523 14.0278 47.85 14.06V14.06Z" fill="black"/>
</svg>
